<svg xmlns="http://www.w3.org/2000/svg" xmlns:xlink="http://www.w3.org/1999/xlink" width="500" zoomAndPan="magnify" viewBox="0 0 375 374.999991" height="500" preserveAspectRatio="xMidYMid meet" version="1.0"><defs><g/><clipPath id="4e7d16af03"><path d="M 141.265625 107.96875 L 233.515625 107.96875 L 233.515625 218.96875 L 141.265625 218.96875 Z M 141.265625 107.96875 " clip-rule="nonzero"/></clipPath></defs><rect x="-37.5" width="450" fill="#ffffff" y="-37.499999" height="449.999989" fill-opacity="1"/><rect x="-37.5" width="450" fill="#ffffff" y="-37.499999" height="449.999989" fill-opacity="1"/><g clip-path="url(#4e7d16af03)"><path fill="#000000" d="M 187.40625 107.96875 L 183.570312 117.214844 L 183.570312 117.21875 L 141.328125 219.019531 L 149 219.019531 L 172.050781 163.464844 L 175.914062 172.78125 L 156.730469 219.019531 L 164.40625 219.019531 L 183.585938 172.78125 L 179.75 163.535156 L 179.722656 163.464844 L 191.238281 135.714844 L 222.863281 211.996094 L 215.191406 211.996094 L 191.253906 154.304688 L 187.417969 163.546875 L 207.519531 211.996094 L 210.4375 219.019531 L 233.449219 219.019531 L 233.449219 218.984375 L 230.546875 211.992188 L 230.535156 211.992188 Z M 187.417969 182.042969 L 183.582031 191.285156 L 195.089844 219.019531 L 202.761719 219.019531 Z M 179.746094 200.53125 L 172.070312 219.019531 L 179.746094 219.019531 L 183.582031 209.773438 Z M 179.746094 200.53125 " fill-opacity="1" fill-rule="nonzero"/></g><g fill="#000000" fill-opacity="1"><g transform="translate(126.891557, 252.052327)"><g><path d="M 13.875 -25.191406 C 13.367188 -26.222656 12.5625 -26.222656 12.054688 -25.191406 L 0.507812 -0.804688 C 0.296875 -0.328125 0.507812 0 1 0 L 6.921875 0 C 7.28125 0 7.558594 -0.195312 7.691406 -0.542969 L 8.511719 -2.65625 L 17.417969 -2.65625 L 18.238281 -0.542969 C 18.367188 -0.195312 18.648438 0 19.007812 0 L 24.929688 0 C 25.421875 0 25.632812 -0.328125 25.421875 -0.804688 Z M 12.972656 -14.023438 L 15.449219 -7.691406 L 10.480469 -7.691406 Z M 12.972656 -14.023438 "/></g></g></g><g fill="#000000" fill-opacity="1"><g transform="translate(152.850182, 252.052327)"><g><path d="M 16.792969 0 C 17.238281 0 17.464844 -0.230469 17.464844 -0.671875 L 17.464844 -5.035156 C 17.464844 -5.476562 17.238281 -5.707031 16.792969 -5.707031 L 9.199219 -5.707031 L 9.199219 -24.519531 C 9.199219 -24.960938 8.972656 -25.191406 8.527344 -25.191406 L 3.164062 -25.191406 C 2.722656 -25.191406 2.492188 -24.960938 2.492188 -24.519531 L 2.492188 -0.671875 C 2.492188 -0.230469 2.722656 0 3.164062 0 Z M 16.792969 0 "/></g></g></g><g fill="#000000" fill-opacity="1"><g transform="translate(171.019579, 252.052327)"><g><path d="M 8.5625 0 C 9.003906 0 9.234375 -0.230469 9.234375 -0.671875 L 9.234375 -8.59375 L 14.972656 -8.59375 C 19.746094 -8.59375 22.664062 -11.855469 22.664062 -17.089844 C 22.664062 -21.402344 20.730469 -25.191406 13.628906 -25.191406 L 3.164062 -25.191406 C 2.722656 -25.191406 2.492188 -24.960938 2.492188 -24.519531 L 2.492188 -0.671875 C 2.492188 -0.230469 2.722656 0 3.164062 0 Z M 9.234375 -19.484375 L 12.464844 -19.484375 C 13.808594 -19.484375 15.957031 -19.484375 15.957031 -17.023438 C 15.957031 -14.300781 13.398438 -14.300781 12.464844 -14.300781 L 9.234375 -14.300781 Z M 9.234375 -19.484375 "/></g></g></g><g fill="#000000" fill-opacity="1"><g transform="translate(194.89561, 252.052327)"><g><path d="M 8.527344 0 C 8.972656 0 9.199219 -0.230469 9.199219 -0.671875 L 9.199219 -8.496094 L 18.007812 -8.496094 L 18.007812 -0.671875 C 18.007812 -0.230469 18.238281 0 18.679688 0 L 24.042969 0 C 24.484375 0 24.714844 -0.230469 24.714844 -0.671875 L 24.714844 -24.519531 C 24.714844 -24.960938 24.484375 -25.191406 24.042969 -25.191406 L 18.679688 -25.191406 C 18.238281 -25.191406 18.007812 -24.960938 18.007812 -24.519531 L 18.007812 -14.203125 L 9.199219 -14.203125 L 9.199219 -24.519531 C 9.199219 -24.960938 8.972656 -25.191406 8.527344 -25.191406 L 3.164062 -25.191406 C 2.722656 -25.191406 2.492188 -24.960938 2.492188 -24.519531 L 2.492188 -0.671875 C 2.492188 -0.230469 2.722656 0 3.164062 0 Z M 8.527344 0 "/></g></g></g><g fill="#000000" fill-opacity="1"><g transform="translate(222.133307, 252.052327)"><g><path d="M 13.875 -25.191406 C 13.367188 -26.222656 12.5625 -26.222656 12.054688 -25.191406 L 0.507812 -0.804688 C 0.296875 -0.328125 0.507812 0 1 0 L 6.921875 0 C 7.28125 0 7.558594 -0.195312 7.691406 -0.542969 L 8.511719 -2.65625 L 17.417969 -2.65625 L 18.238281 -0.542969 C 18.367188 -0.195312 18.648438 0 19.007812 0 L 24.929688 0 C 25.421875 0 25.632812 -0.328125 25.421875 -0.804688 Z M 12.972656 -14.023438 L 15.449219 -7.691406 L 10.480469 -7.691406 Z M 12.972656 -14.023438 "/></g></g></g><g fill="#000000" fill-opacity="1"><g transform="translate(168.425736, 265.931438)"><g><path d="M 0.839844 0 L 3.609375 0 C 5.820312 0 7.296875 -1.410156 7.296875 -3.5 C 7.296875 -5.578125 5.820312 -7 3.609375 -7 L 0.839844 -7 Z M 2.429688 -1.460938 L 2.429688 -5.539062 L 3.558594 -5.539062 C 4.820312 -5.539062 5.667969 -4.730469 5.667969 -3.5 C 5.667969 -2.269531 4.820312 -1.460938 3.578125 -1.460938 Z M 2.429688 -1.460938 "/></g></g></g><g fill="#000000" fill-opacity="1"><g transform="translate(176.142693, 265.931438)"><g><path d="M 0.839844 0 L 2.429688 0 L 2.429688 -7 L 0.839844 -7 Z M 0.839844 0 "/></g></g></g><g fill="#000000" fill-opacity="1"><g transform="translate(179.4114, 265.931438)"><g><path d="M 0.0898438 0 L 1.789062 0 L 2.257812 -1.210938 L 5.039062 -1.210938 L 5.507812 0 L 7.207031 0 L 4.429688 -7 L 2.871094 -7 Z M 2.667969 -2.460938 L 3.648438 -5.019531 L 4.640625 -2.460938 Z M 2.667969 -2.460938 "/></g></g></g><g fill="#000000" fill-opacity="1"><g transform="translate(186.708519, 265.931438)"><g><path d="M 0.839844 0 L 5.488281 0 L 5.488281 -1.488281 L 2.429688 -1.488281 L 2.429688 -7 L 0.839844 -7 Z M 0.839844 0 "/></g></g></g><g fill="#000000" fill-opacity="1"><g transform="translate(192.466247, 265.931438)"><g><path d="M 0.839844 0 L 5.488281 0 L 5.488281 -1.488281 L 2.429688 -1.488281 L 2.429688 -7 L 0.839844 -7 Z M 0.839844 0 "/></g></g></g><g fill="#000000" fill-opacity="1"><g transform="translate(198.223975, 265.931438)"><g><path d="M 4.160156 0.140625 C 6.347656 0.140625 7.898438 -1.359375 7.898438 -3.5 C 7.898438 -5.636719 6.347656 -7.136719 4.160156 -7.136719 C 1.96875 -7.136719 0.429688 -5.636719 0.429688 -3.5 C 0.429688 -1.359375 1.96875 0.140625 4.160156 0.140625 Z M 2.050781 -3.5 C 2.050781 -4.757812 2.917969 -5.628906 4.160156 -5.628906 C 5.410156 -5.628906 6.269531 -4.757812 6.269531 -3.5 C 6.269531 -2.238281 5.410156 -1.371094 4.160156 -1.371094 C 2.917969 -1.371094 2.050781 -2.238281 2.050781 -3.5 Z M 2.050781 -3.5 "/></g></g></g></svg>