<svg xmlns="http://www.w3.org/2000/svg" xmlns:xlink="http://www.w3.org/1999/xlink" width="500" zoomAndPan="magnify" viewBox="0 0 375 374.999991" height="500" preserveAspectRatio="xMidYMid meet" version="1.0"><defs><g/><clipPath id="a42cb92c39"><path d="M 45.636719 117 L 329 117 L 329 211.710938 L 45.636719 211.710938 Z M 45.636719 117 " clip-rule="nonzero"/></clipPath><clipPath id="8d4db41c16"><path d="M 151 196 L 171 196 L 171 211.710938 L 151 211.710938 Z M 151 196 " clip-rule="nonzero"/></clipPath></defs><rect x="-37.5" width="450" fill="#ffffff" y="-37.499999" height="449.999989" fill-opacity="1"/><rect x="-37.5" width="450" fill="#ffffff" y="-37.499999" height="449.999989" fill-opacity="1"/><g clip-path="url(#a42cb92c39)"><path fill="#231f20" d="M 276.847656 153.570312 L 265.28125 126.214844 C 281.714844 131.421875 299.488281 144.527344 299.488281 144.527344 L 299.820312 153.464844 Z M 100.648438 177.78125 C 108.121094 173.65625 109.410156 162.828125 109.410156 162.828125 C 119.203125 163.34375 153.46875 153.804688 153.46875 153.804688 C 147.285156 164.890625 100.648438 177.78125 100.648438 177.78125 Z M 132.515625 205.921875 L 108.894531 204.785156 L 111.40625 204.527344 L 111.40625 194.492188 L 108.894531 194.492188 L 132.515625 190.195312 Z M 56.332031 205.148438 L 59.339844 196.898438 L 90.6875 196.46875 L 95.582031 205.148438 Z M 71.164062 165.175781 C 70.90625 164.175781 70.484375 162.605469 70.125 161.28125 L 72.035156 161.257812 C 71.558594 162.53125 71.113281 164.050781 71.164062 165.175781 Z M 328.9375 157.214844 C 325.296875 153.351562 315.039062 152.472656 315.039062 152.472656 C 301.367188 140.777344 285.707031 128.417969 260.558594 120.839844 C 238.589844 114.21875 184.625 119.5625 171.347656 121.015625 C 169.398438 121.230469 167.515625 121.863281 165.835938 122.882812 L 132.351562 143.148438 L 134.171875 143.792969 L 165.949219 124.445312 C 167.769531 123.332031 169.847656 122.707031 171.980469 122.625 L 217.253906 120.839844 C 221.960938 121.722656 220.78125 123.929688 220.78125 123.929688 L 202.546875 145.707031 C 173.433594 145.113281 131.230469 153.792969 131.230469 153.792969 C 135.789062 148.5 178.726562 144.085938 178.726562 144.085938 C 60.058594 144.96875 56.238281 161.445312 56.238281 161.445312 L 69.707031 161.285156 C 70.0625 165.054688 70.707031 172.460938 70.777344 177.664062 L 72.785156 161.25 L 96.566406 160.964844 C 96.125 176.636719 88.515625 178.292969 88.515625 178.292969 C 88.515625 178.292969 80.601562 179.179688 70.769531 179.761719 C 70.785156 179.121094 70.785156 178.414062 70.777344 177.664062 L 70.515625 179.777344 C 69.476562 179.835938 68.414062 179.894531 67.339844 179.949219 C 55.980469 180.5 56.421875 171.671875 56.421875 171.671875 L 51.566406 171.890625 L 45.832031 179.949219 L 47.707031 182.925781 L 47.707031 201.355469 L 45.832031 201.355469 L 45.832031 210.183594 L 53.550781 209.851562 L 55.539062 208.085938 L 97.667969 208.417969 L 103.292969 211.726562 L 142.113281 211.175781 C 142.113281 211.175781 146.855469 168.691406 162.847656 162.402344 C 178.835938 156.113281 184.351562 164.28125 184.351562 164.28125 L 195.050781 164.386719 L 184.574219 156.996094 L 211.039062 157.214844 L 211.152344 146.953125 L 225.929688 127.972656 C 228.464844 123.671875 240.707031 121.574219 258.574219 124.554688 C 259.128906 124.644531 259.683594 124.75 260.246094 124.871094 L 270.484375 148.71875 C 270.484375 148.71875 240.929688 148.71875 233.539062 148.609375 C 226.148438 148.5 228.027344 146.679688 228.027344 146.679688 L 235.304688 146.679688 C 243.90625 144.746094 237.621094 135.808594 226.8125 135.808594 C 216.003906 135.808594 217.550781 145.519531 217.550781 145.519531 L 213.136719 145.519531 L 213.136719 157.546875 L 275.515625 157.546875 L 261.558594 125.167969 C 262.527344 125.398438 263.503906 125.667969 264.488281 125.964844 L 275.945312 154.589844 L 276.332031 156.886719 L 302.578125 158.207031 L 282.398438 165.273438 L 328.382812 165.933594 L 325.628906 160.746094 C 326.953125 160.414062 328.9375 157.214844 328.9375 157.214844 " fill-opacity="1" fill-rule="nonzero"/></g><path fill="#231f20" d="M 57.75 162.09375 L 55.945312 162.09375 L 52.167969 170.949219 L 55.902344 170.949219 C 54.613281 167.996094 55.601562 165.046875 57.75 162.09375 " fill-opacity="1" fill-rule="nonzero"/><g clip-path="url(#8d4db41c16)"><path fill="#231f20" d="M 151.152344 211.726562 L 162.488281 211.726562 L 170.734375 196.46875 L 161.199219 196.46875 L 151.152344 211.726562 " fill-opacity="1" fill-rule="nonzero"/></g><path fill="#231f20" d="M 172.117188 210.648438 L 181.851562 210.648438 L 188.933594 197.546875 L 180.746094 197.546875 L 172.117188 210.648438 " fill-opacity="1" fill-rule="nonzero"/><path fill="#231f20" d="M 192.546875 209.988281 L 201.300781 209.988281 L 207.664062 198.210938 L 200.304688 198.210938 L 192.546875 209.988281 " fill-opacity="1" fill-rule="nonzero"/><path fill="#231f20" d="M 212.820312 209.453125 L 220.773438 209.453125 L 226.558594 198.746094 L 219.871094 198.746094 L 212.820312 209.453125 " fill-opacity="1" fill-rule="nonzero"/><path fill="#231f20" d="M 305.492188 204.097656 L 306.984375 202.484375 L 311.457031 202.480469 C 310.65625 200.8125 308.65625 199.632812 306.316406 199.632812 C 304.253906 199.632812 302.464844 200.546875 301.515625 201.902344 L 301.511719 201.898438 L 237.488281 200.648438 L 233.871094 208.835938 L 302.644531 207.433594 L 302.644531 207.425781 C 303.621094 208.132812 304.902344 208.566406 306.316406 208.566406 C 308.601562 208.566406 310.5625 207.441406 311.402344 205.835938 L 306.902344 205.851562 L 305.492188 204.097656 " fill-opacity="1" fill-rule="nonzero"/><g fill="#000000" fill-opacity="1"><g transform="translate(89.754714, 285.886313)"><g><path d="M 13.546875 -13.671875 L 15.765625 -36.5 L 15.65625 -36.5 L 7.59375 -13.671875 Z M -3.875 0 L 13.109375 -45.46875 L 22.25 -45.46875 L 18.65625 0 L 12.203125 0 L 12.96875 -8.109375 L 5.640625 -8.109375 L 2.796875 0 Z M -3.875 0 "/></g></g></g><g fill="#000000" fill-opacity="1"><g transform="translate(114.969076, 285.886313)"><g><path d="M 20.71875 -11.671875 C 19.757812 -7.492188 18.257812 -4.414062 16.21875 -2.4375 C 14.175781 -0.46875 11.398438 0.515625 7.890625 0.515625 C 4.390625 0.515625 2.070312 -0.472656 0.9375 -2.453125 C -0.1875 -4.429688 -0.273438 -7.503906 0.671875 -11.671875 L 8.5 -45.484375 L 15.421875 -45.484375 L 7.65625 -11.8125 C 7.082031 -9.414062 6.851562 -7.957031 6.96875 -7.4375 C 7.082031 -6.925781 7.242188 -6.457031 7.453125 -6.03125 C 7.671875 -5.613281 8.28125 -5.40625 9.28125 -5.40625 C 10.28125 -5.40625 11.0625 -5.695312 11.625 -6.28125 C 12.195312 -6.863281 12.628906 -7.585938 12.921875 -8.453125 C 13.210938 -9.328125 13.523438 -10.445312 13.859375 -11.8125 L 21.625 -45.484375 L 28.546875 -45.484375 Z M 20.71875 -11.671875 "/></g></g></g><g fill="#000000" fill-opacity="1"><g transform="translate(141.320151, 285.886313)"><g><path d="M 0.484375 0 L 9.609375 -39.46875 L 4.28125 -39.46875 L 5.65625 -45.46875 L 22.984375 -45.46875 L 21.625 -39.46875 L 16.5 -39.46875 L 7.390625 0 Z M 0.484375 0 "/></g></g></g><g fill="#000000" fill-opacity="1"><g transform="translate(159.481732, 285.886313)"><g><path d="M 7.515625 -12.625 C 6.898438 -9.957031 6.671875 -8.097656 6.828125 -7.046875 C 6.992188 -6.003906 7.707031 -5.484375 8.96875 -5.484375 C 10.226562 -5.484375 11.179688 -6.019531 11.828125 -7.09375 C 12.472656 -8.164062 13.097656 -10.007812 13.703125 -12.625 L 18.578125 -33.8125 C 19.078125 -35.96875 19.234375 -37.539062 19.046875 -38.53125 C 18.867188 -39.519531 18.191406 -40.015625 17.015625 -40.015625 C 15.835938 -40.015625 14.898438 -39.519531 14.203125 -38.53125 C 13.503906 -37.539062 12.90625 -35.976562 12.40625 -33.84375 Z M 20.640625 -12.703125 C 19.628906 -8.265625 18.078125 -4.953125 15.984375 -2.765625 C 13.890625 -0.578125 11.097656 0.515625 7.609375 0.515625 C 4.117188 0.515625 1.816406 -0.582031 0.703125 -2.78125 C -0.410156 -4.976562 -0.460938 -8.285156 0.546875 -12.703125 L 5.359375 -33.5 C 7.285156 -41.84375 11.648438 -46.015625 18.453125 -46.015625 C 21.960938 -46.015625 24.242188 -44.953125 25.296875 -42.828125 C 26.347656 -40.710938 26.398438 -37.601562 25.453125 -33.5 Z M 20.640625 -12.703125 "/></g></g></g><g fill="#000000" fill-opacity="1"><g transform="translate(125.609834, 313.164853)"><g><path d="M 1.796875 -10.75 C 1.773438 -11.125 1.820312 -11.570312 1.9375 -12.09375 C 2.195312 -13.21875 2.613281 -14.109375 3.1875 -14.765625 C 3.757812 -15.429688 4.628906 -15.765625 5.796875 -15.765625 C 7.304688 -15.765625 8.03125 -15.039062 7.96875 -13.59375 C 7.945312 -12.96875 7.828125 -12.179688 7.609375 -11.234375 L 7.390625 -10.3125 L 5.640625 -10.3125 L 5.890625 -11.359375 C 6.117188 -12.347656 6.21875 -13.015625 6.1875 -13.359375 C 6.164062 -13.703125 6.09375 -13.925781 5.96875 -14.03125 C 5.851562 -14.144531 5.675781 -14.203125 5.4375 -14.203125 C 5 -14.203125 4.644531 -14.039062 4.375 -13.71875 C 4.101562 -13.394531 3.894531 -12.910156 3.75 -12.265625 C 3.601562 -11.628906 3.582031 -11.164062 3.6875 -10.875 C 3.800781 -10.582031 3.957031 -10.300781 4.15625 -10.03125 C 4.351562 -9.757812 4.457031 -9.609375 4.46875 -9.578125 L 5.28125 -8.453125 C 6.25 -7.117188 6.539062 -5.625 6.15625 -3.96875 C 5.851562 -2.625 5.410156 -1.597656 4.828125 -0.890625 C 4.242188 -0.179688 3.367188 0.171875 2.203125 0.171875 C 0.796875 0.171875 0.0390625 -0.445312 -0.0625 -1.6875 C -0.113281 -2.375 -0.0078125 -3.285156 0.25 -4.421875 C 0.257812 -4.441406 0.265625 -4.46875 0.265625 -4.5 L 0.625 -6.015625 L 2.40625 -6.015625 L 2.03125 -4.4375 C 1.769531 -3.289062 1.671875 -2.492188 1.734375 -2.046875 C 1.796875 -1.609375 2.050781 -1.390625 2.5 -1.390625 C 2.945312 -1.390625 3.28125 -1.492188 3.5 -1.703125 C 3.71875 -1.910156 3.890625 -2.226562 4.015625 -2.65625 C 4.140625 -3.09375 4.265625 -3.578125 4.390625 -4.109375 C 4.640625 -5.191406 4.398438 -6.207031 3.671875 -7.15625 L 2.890625 -8.171875 C 2.191406 -9.109375 1.828125 -9.96875 1.796875 -10.75 Z M 1.796875 -10.75 "/></g></g></g><g fill="#000000" fill-opacity="1"><g transform="translate(142.656403, 313.164853)"><g><path d="M 3.09375 -15.578125 L 7.734375 -15.578125 L 7.390625 -14.046875 L 4.5625 -14.046875 L 3.328125 -8.71875 L 6 -8.71875 L 5.65625 -7.203125 L 2.984375 -7.203125 L 1.671875 -1.515625 L 4.53125 -1.515625 L 4.1875 0 L -0.5 0 Z M 3.09375 -15.578125 "/></g></g></g><g fill="#000000" fill-opacity="1"><g transform="translate(158.809497, 313.164853)"><g><path d="M 3.09375 -15.578125 L 6.359375 -15.578125 C 7.273438 -15.578125 7.894531 -15.382812 8.21875 -15 C 8.539062 -14.613281 8.632812 -13.960938 8.5 -13.046875 C 8.445312 -12.671875 8.328125 -12.082031 8.140625 -11.28125 C 7.960938 -10.476562 7.703125 -9.804688 7.359375 -9.265625 C 7.023438 -8.722656 6.578125 -8.375 6.015625 -8.21875 C 6.390625 -8.144531 6.632812 -7.9375 6.75 -7.59375 C 6.875 -7.25 6.890625 -6.703125 6.796875 -5.953125 C 6.710938 -5.203125 6.5 -4.082031 6.15625 -2.59375 C 5.8125 -1.113281 5.660156 -0.25 5.703125 0 L 3.875 0 C 3.820312 -0.1875 4.175781 -1.9375 4.9375 -5.25 C 5.195312 -6.363281 5.238281 -7.007812 5.0625 -7.1875 C 4.882812 -7.363281 4.570312 -7.453125 4.125 -7.453125 L 3.0625 -7.515625 L 1.328125 0 L -0.5 0 Z M 6.453125 -11.765625 C 6.722656 -12.960938 6.769531 -13.65625 6.59375 -13.84375 C 6.425781 -14.03125 6.140625 -14.125 5.734375 -14.125 L 4.578125 -14.125 L 3.375 -8.875 L 4.53125 -8.875 C 4.882812 -8.875 5.160156 -8.941406 5.359375 -9.078125 C 5.554688 -9.210938 5.734375 -9.46875 5.890625 -9.84375 C 6.054688 -10.226562 6.234375 -10.832031 6.421875 -11.65625 Z M 6.453125 -11.765625 "/></g></g></g><g fill="#000000" fill-opacity="1"><g transform="translate(176.572614, 313.164853)"><g><path d="M 7.6875 -15.578125 L 9.421875 -15.578125 L 3.453125 0 L 1.328125 0 L 2.328125 -15.578125 L 4.078125 -15.578125 L 3.578125 -8.984375 L 3.140625 -3.1875 L 3.171875 -3.1875 L 5.28125 -8.984375 Z M 7.6875 -15.578125 "/></g></g></g><g fill="#000000" fill-opacity="1"><g transform="translate(194.052651, 313.164853)"><g><path d="M 3.234375 -15.578125 L 5.0625 -15.578125 L 1.46875 0 L -0.359375 0 Z M 3.234375 -15.578125 "/></g></g></g><g fill="#000000" fill-opacity="1"><g transform="translate(208.047253, 313.164853)"><g><path d="M 1.875 -11.078125 C 2.144531 -12.253906 2.441406 -13.117188 2.765625 -13.671875 C 3.085938 -14.234375 3.394531 -14.644531 3.6875 -14.90625 C 4.320312 -15.46875 5.117188 -15.753906 6.078125 -15.765625 C 7.421875 -15.753906 8.148438 -15.160156 8.265625 -13.984375 C 8.335938 -13.304688 8.242188 -12.40625 7.984375 -11.28125 L 7.578125 -9.546875 L 5.78125 -9.546875 L 6.1875 -11.28125 C 6.414062 -12.28125 6.515625 -12.953125 6.484375 -13.296875 C 6.460938 -13.648438 6.382812 -13.882812 6.25 -14 C 6.125 -14.113281 5.945312 -14.171875 5.71875 -14.171875 C 5.226562 -14.171875 4.832031 -13.9375 4.53125 -13.46875 C 4.238281 -13.007812 3.976562 -12.285156 3.75 -11.296875 L 2.203125 -4.546875 C 1.921875 -3.367188 1.8125 -2.546875 1.875 -2.078125 C 1.9375 -1.609375 2.207031 -1.375 2.6875 -1.375 C 3.175781 -1.375 3.554688 -1.609375 3.828125 -2.078125 C 4.097656 -2.546875 4.367188 -3.375 4.640625 -4.5625 L 5.03125 -6.28125 L 6.84375 -6.28125 L 6.453125 -4.578125 C 6.078125 -2.941406 5.578125 -1.738281 4.953125 -0.96875 C 4.328125 -0.195312 3.457031 0.1875 2.34375 0.1875 C 1.238281 0.1875 0.539062 -0.207031 0.25 -1 C -0.03125 -1.789062 0.0078125 -2.988281 0.375 -4.59375 Z M 1.875 -11.078125 "/></g></g></g><g fill="#000000" fill-opacity="1"><g transform="translate(225.50075, 313.164853)"><g><path d="M 3.09375 -15.578125 L 7.734375 -15.578125 L 7.390625 -14.046875 L 4.5625 -14.046875 L 3.328125 -8.71875 L 6 -8.71875 L 5.65625 -7.203125 L 2.984375 -7.203125 L 1.671875 -1.515625 L 4.53125 -1.515625 L 4.1875 0 L -0.5 0 Z M 3.09375 -15.578125 "/></g></g></g><g fill="#000000" fill-opacity="1"><g transform="translate(241.653844, 313.164853)"><g><path d="M 1.796875 -10.75 C 1.773438 -11.125 1.820312 -11.570312 1.9375 -12.09375 C 2.195312 -13.21875 2.613281 -14.109375 3.1875 -14.765625 C 3.757812 -15.429688 4.628906 -15.765625 5.796875 -15.765625 C 7.304688 -15.765625 8.03125 -15.039062 7.96875 -13.59375 C 7.945312 -12.96875 7.828125 -12.179688 7.609375 -11.234375 L 7.390625 -10.3125 L 5.640625 -10.3125 L 5.890625 -11.359375 C 6.117188 -12.347656 6.21875 -13.015625 6.1875 -13.359375 C 6.164062 -13.703125 6.09375 -13.925781 5.96875 -14.03125 C 5.851562 -14.144531 5.675781 -14.203125 5.4375 -14.203125 C 5 -14.203125 4.644531 -14.039062 4.375 -13.71875 C 4.101562 -13.394531 3.894531 -12.910156 3.75 -12.265625 C 3.601562 -11.628906 3.582031 -11.164062 3.6875 -10.875 C 3.800781 -10.582031 3.957031 -10.300781 4.15625 -10.03125 C 4.351562 -9.757812 4.457031 -9.609375 4.46875 -9.578125 L 5.28125 -8.453125 C 6.25 -7.117188 6.539062 -5.625 6.15625 -3.96875 C 5.851562 -2.625 5.410156 -1.597656 4.828125 -0.890625 C 4.242188 -0.179688 3.367188 0.171875 2.203125 0.171875 C 0.796875 0.171875 0.0390625 -0.445312 -0.0625 -1.6875 C -0.113281 -2.375 -0.0078125 -3.285156 0.25 -4.421875 C 0.257812 -4.441406 0.265625 -4.46875 0.265625 -4.5 L 0.625 -6.015625 L 2.40625 -6.015625 L 2.03125 -4.4375 C 1.769531 -3.289062 1.671875 -2.492188 1.734375 -2.046875 C 1.796875 -1.609375 2.050781 -1.390625 2.5 -1.390625 C 2.945312 -1.390625 3.28125 -1.492188 3.5 -1.703125 C 3.71875 -1.910156 3.890625 -2.226562 4.015625 -2.65625 C 4.140625 -3.09375 4.265625 -3.578125 4.390625 -4.109375 C 4.640625 -5.191406 4.398438 -6.207031 3.671875 -7.15625 L 2.890625 -8.171875 C 2.191406 -9.109375 1.828125 -9.96875 1.796875 -10.75 Z M 1.796875 -10.75 "/></g></g></g><g fill="#ff3131" fill-opacity="1"><g transform="translate(187.227873, 285.886313)"><g><path d="M 0.234375 -12.78125 L 1.171875 -16.84375 L 7.734375 -16.84375 L 6.671875 -12.265625 C 6.085938 -9.734375 5.894531 -7.957031 6.09375 -6.9375 C 6.289062 -5.914062 6.984375 -5.40625 8.171875 -5.40625 C 9.359375 -5.40625 10.242188 -5.828125 10.828125 -6.671875 C 11.410156 -7.515625 11.921875 -8.890625 12.359375 -10.796875 C 12.804688 -12.710938 12.847656 -14.378906 12.484375 -15.796875 C 12.117188 -17.210938 11.367188 -18.695312 10.234375 -20.25 L 7.671875 -23.71875 C 6.484375 -25.351562 5.65625 -27.046875 5.1875 -28.796875 C 4.726562 -30.554688 4.765625 -32.59375 5.296875 -34.90625 C 6.160156 -38.65625 7.523438 -41.441406 9.390625 -43.265625 C 11.265625 -45.097656 13.96875 -46.015625 17.5 -46.015625 C 21.03125 -46.015625 23.171875 -44.945312 23.921875 -42.8125 C 24.679688 -40.6875 24.585938 -37.582031 23.640625 -33.5 L 23 -30.6875 L 16.609375 -30.6875 L 17.359375 -33.9375 C 17.878906 -36.144531 18.054688 -37.726562 17.890625 -38.6875 C 17.734375 -39.644531 17.113281 -40.125 16.03125 -40.125 C 14.957031 -40.125 14.101562 -39.757812 13.46875 -39.03125 C 12.832031 -38.3125 12.34375 -37.226562 12 -35.78125 C 11.664062 -34.332031 11.640625 -33.175781 11.921875 -32.3125 C 12.210938 -31.457031 12.832031 -30.359375 13.78125 -29.015625 L 16.59375 -24.953125 C 17.988281 -22.921875 18.925781 -20.863281 19.40625 -18.78125 C 19.882812 -16.695312 19.84375 -14.421875 19.28125 -11.953125 C 18.289062 -7.703125 16.84375 -4.5625 14.9375 -2.53125 C 13.039062 -0.5 10.304688 0.515625 6.734375 0.515625 C 3.160156 0.515625 0.929688 -0.613281 0.046875 -2.875 C -0.828125 -5.144531 -0.765625 -8.445312 0.234375 -12.78125 Z M 0.234375 -12.78125 "/></g></g></g><g fill="#ff3131" fill-opacity="1"><g transform="translate(210.608, 285.886313)"><g><path d="M -1.796875 0 L 8.6875 -45.46875 L 15.609375 -45.46875 L 11.375 -27.078125 L 17.578125 -27.078125 L 21.8125 -45.46875 L 28.734375 -45.46875 L 18.25 0 L 11.328125 0 L 16.203125 -21.125 L 10 -21.125 L 5.125 0 Z M -1.796875 0 "/></g></g></g><g fill="#ff3131" fill-opacity="1"><g transform="translate(237.475762, 285.886313)"><g><path d="M 7.515625 -12.625 C 6.898438 -9.957031 6.671875 -8.097656 6.828125 -7.046875 C 6.992188 -6.003906 7.707031 -5.484375 8.96875 -5.484375 C 10.226562 -5.484375 11.179688 -6.019531 11.828125 -7.09375 C 12.472656 -8.164062 13.097656 -10.007812 13.703125 -12.625 L 18.578125 -33.8125 C 19.078125 -35.96875 19.234375 -37.539062 19.046875 -38.53125 C 18.867188 -39.519531 18.191406 -40.015625 17.015625 -40.015625 C 15.835938 -40.015625 14.898438 -39.519531 14.203125 -38.53125 C 13.503906 -37.539062 12.90625 -35.976562 12.40625 -33.84375 Z M 20.640625 -12.703125 C 19.628906 -8.265625 18.078125 -4.953125 15.984375 -2.765625 C 13.890625 -0.578125 11.097656 0.515625 7.609375 0.515625 C 4.117188 0.515625 1.816406 -0.582031 0.703125 -2.78125 C -0.410156 -4.976562 -0.460938 -8.285156 0.546875 -12.703125 L 5.359375 -33.5 C 7.285156 -41.84375 11.648438 -46.015625 18.453125 -46.015625 C 21.960938 -46.015625 24.242188 -44.953125 25.296875 -42.828125 C 26.347656 -40.710938 26.398438 -37.601562 25.453125 -33.5 Z M 20.640625 -12.703125 "/></g></g></g><g fill="#ff3131" fill-opacity="1"><g transform="translate(263.284322, 285.886313)"><g><path d="M -1.796875 0 L 8.6875 -45.46875 L 19.125 -45.46875 C 22.65625 -45.46875 24.820312 -44.394531 25.625 -42.25 C 26.4375 -40.101562 26.390625 -36.90625 25.484375 -32.65625 L 25.25 -31.703125 C 24.207031 -27.179688 22.773438 -23.753906 20.953125 -21.421875 C 19.128906 -19.085938 16.476562 -17.921875 13 -17.921875 L 9.25 -17.921875 L 5.125 0 Z M 10.578125 -23.640625 L 12.953125 -23.640625 C 14.410156 -23.640625 15.488281 -24.203125 16.1875 -25.328125 C 16.882812 -26.453125 17.601562 -28.601562 18.34375 -31.78125 L 18.546875 -32.65625 C 19.148438 -35.34375 19.359375 -37.257812 19.171875 -38.40625 C 18.984375 -39.5625 18.203125 -40.140625 16.828125 -40.140625 L 14.390625 -40.140625 Z M 10.578125 -23.640625 "/></g></g></g></svg>